<svg xmlns="http://www.w3.org/2000/svg" viewBox="0 0 1792 840" width="1792" height="840" font-family="Pretendard, 'Pretendard Variable', 'Malgun Gothic', sans-serif">
<!-- A1/4 사례 · PDF 200장을 엑셀로 (tools/illus/a1_why_pdf_case.py) -->
<defs>
  <filter id="sh" x="-15%" y="-15%" width="130%" height="140%"><feDropShadow dx="0" dy="8" stdDeviation="12" flood-color="#101113" flood-opacity="0.12"/></filter>
  <filter id="shs" x="-15%" y="-15%" width="130%" height="140%"><feDropShadow dx="0" dy="3" stdDeviation="4" flood-color="#101113" flood-opacity="0.14"/></filter>
  <marker id="ab" viewBox="0 0 10 10" refX="7" refY="5" markerWidth="4.2" markerHeight="4.2" orient="auto-start-reverse"><path d="M0 0L10 5L0 10z" fill="#1273c4"/></marker>
  <marker id="ak" viewBox="0 0 10 10" refX="7" refY="5" markerWidth="4.2" markerHeight="4.2" orient="auto-start-reverse"><path d="M0 0L10 5L0 10z" fill="#101113"/></marker>
  <marker id="ag" viewBox="0 0 10 10" refX="7" refY="5" markerWidth="4.2" markerHeight="4.2" orient="auto-start-reverse"><path d="M0 0L10 5L0 10z" fill="#12a150"/></marker>
</defs>
<rect x="626" y="168" width="540" height="92" rx="28" fill="#fff" stroke="#aeb3ba" stroke-width="3" filter="url(#shs)"/><path d="M720 259L752 259L736 282Z" fill="#fff" stroke="#aeb3ba" stroke-width="3"/><rect x="720" y="256" width="32" height="6" fill="#fff"/><text x="896.0" y="222.84" font-size="26" font-weight="900" fill="#2b2f35" text-anchor="middle">이 PDF 200장 표를 엑셀로 옮겨주세요</text>
<text x="736" y="300" font-size="22" font-weight="800" fill="#5b6570" text-anchor="middle">팀장</text>
<g transform="translate(200 450) rotate(-6 55.0 68.75) scale(1.71875)" filter="url(#shs)"><path d="M6 2h36l20 20v52a4 4 0 0 1-4 4H6a4 4 0 0 1-4-4V6a4 4 0 0 1 4-4z" fill="#fff" stroke="#c9ccd1" stroke-width="2.5"/><path d="M42 2v16a4 4 0 0 0 4 4h16" fill="#eef1f4" stroke="#c9ccd1" stroke-width="2.5"/><rect x="12" y="36" width="38" height="4" rx="2" fill="#d64545"/><rect x="12" y="48" width="30" height="4" rx="2" fill="#d5d8dc"/><rect x="12" y="60" width="36" height="4" rx="2" fill="#d5d8dc"/></g>
<g transform="translate(210 438) rotate(-2 55.0 68.75) scale(1.71875)" filter="url(#shs)"><path d="M6 2h36l20 20v52a4 4 0 0 1-4 4H6a4 4 0 0 1-4-4V6a4 4 0 0 1 4-4z" fill="#fff" stroke="#c9ccd1" stroke-width="2.5"/><path d="M42 2v16a4 4 0 0 0 4 4h16" fill="#eef1f4" stroke="#c9ccd1" stroke-width="2.5"/><rect x="12" y="36" width="38" height="4" rx="2" fill="#d64545"/><rect x="12" y="48" width="30" height="4" rx="2" fill="#d5d8dc"/><rect x="12" y="60" width="36" height="4" rx="2" fill="#d5d8dc"/></g>
<g transform="translate(220 426) rotate(2 55.0 68.75) scale(1.71875)" filter="url(#shs)"><path d="M6 2h36l20 20v52a4 4 0 0 1-4 4H6a4 4 0 0 1-4-4V6a4 4 0 0 1 4-4z" fill="#fff" stroke="#c9ccd1" stroke-width="2.5"/><path d="M42 2v16a4 4 0 0 0 4 4h16" fill="#eef1f4" stroke="#c9ccd1" stroke-width="2.5"/><rect x="12" y="36" width="38" height="4" rx="2" fill="#d64545"/><rect x="12" y="48" width="30" height="4" rx="2" fill="#d5d8dc"/><rect x="12" y="60" width="36" height="4" rx="2" fill="#d5d8dc"/></g>
<g transform="translate(230 426)"><path d="M6 2h62l34 34v128a4 4 0 0 1-4 4H6a4 4 0 0 1-4-4V6a4 4 0 0 1 4-4z" fill="#fff" stroke="#d64545" stroke-width="2.5"/><path d="M73 2v28a4 4 0 0 0 4 4h28" fill="none" stroke="#d64545" stroke-width="2.5"/></g>
<rect x="242" y="464" width="86" height="78" fill="none" stroke="#aeb3ba" stroke-width="2"/>
<line x1="242" y1="490" x2="328" y2="490" stroke="#aeb3ba" stroke-width="1.5"/>
<line x1="242" y1="516" x2="328" y2="516" stroke="#aeb3ba" stroke-width="1.5"/>
<line x1="285" y1="464" x2="285" y2="542" stroke="#aeb3ba" stroke-width="1.5"/>
<text x="400" y="636" font-size="30" font-weight="900" fill="#101113" text-anchor="middle">표 있는 PDF 200장</text>
<circle cx="160" cy="400" r="28" fill="#1273c4" stroke="#fff" stroke-width="4"/><text x="160" y="410.6" font-size="29" font-weight="800" fill="#fff" text-anchor="middle">1</text>
<path transform="translate(700 460) scale(1.0)" d="M0 57.0h15.4v28.9h-15.4zM15 57.0h15.4v28.9h-15.4zM30 0.0h15.4v28.9h-15.4zM30 28.5h15.4v28.9h-15.4zM30 57.0h15.4v28.9h-15.4zM30 85.5h15.4v28.9h-15.4zM45 0.0h15.4v28.9h-15.4zM45 28.5h15.4v28.9h-15.4zM45 57.0h15.4v28.9h-15.4zM45 85.5h15.4v28.9h-15.4zM45 114.0h15.4v28.9h-15.4zM60 0.0h15.4v28.9h-15.4zM60 57.0h15.4v28.9h-15.4zM60 85.5h15.4v28.9h-15.4zM75 0.0h15.4v28.9h-15.4zM75 28.5h15.4v28.9h-15.4zM75 57.0h15.4v28.9h-15.4zM75 85.5h15.4v28.9h-15.4zM75 114.0h15.4v28.9h-15.4zM90 0.0h15.4v28.9h-15.4zM90 28.5h15.4v28.9h-15.4zM90 57.0h15.4v28.9h-15.4zM90 85.5h15.4v28.9h-15.4zM105 0.0h15.4v28.9h-15.4zM105 28.5h15.4v28.9h-15.4zM105 57.0h15.4v28.9h-15.4zM105 85.5h15.4v28.9h-15.4zM120 0.0h15.4v28.9h-15.4zM120 28.5h15.4v28.9h-15.4zM120 57.0h15.4v28.9h-15.4zM120 85.5h15.4v28.9h-15.4zM135 0.0h15.4v28.9h-15.4zM135 28.5h15.4v28.9h-15.4zM135 57.0h15.4v28.9h-15.4zM135 85.5h15.4v28.9h-15.4zM150 0.0h15.4v28.9h-15.4zM150 28.5h15.4v28.9h-15.4zM150 57.0h15.4v28.9h-15.4zM150 85.5h15.4v28.9h-15.4zM150 114.0h15.4v28.9h-15.4zM165 0.0h15.4v28.9h-15.4zM165 57.0h15.4v28.9h-15.4zM165 85.5h15.4v28.9h-15.4zM180 0.0h15.4v28.9h-15.4zM180 28.5h15.4v28.9h-15.4zM180 57.0h15.4v28.9h-15.4zM180 85.5h15.4v28.9h-15.4zM180 114.0h15.4v28.9h-15.4zM195 0.0h15.4v28.9h-15.4zM195 28.5h15.4v28.9h-15.4zM195 57.0h15.4v28.9h-15.4zM195 85.5h15.4v28.9h-15.4zM210 57.0h15.4v28.9h-15.4zM225 57.0h15.4v28.9h-15.4z" fill="#d97757" shape-rendering="crispEdges"/>
<rect x="955" y="560" width="170" height="26" rx="10" fill="#b9bec5" filter="url(#shs)"/>
<rect x="971" y="584" width="138" height="50" rx="10" fill="#d7dbe0" stroke="#aeb3ba" stroke-width="2"/>
<g transform="translate(996.0 458.0) rotate(-3 44.0 55.0) scale(1.375)" filter="url(#shs)"><path d="M6 2h36l20 20v52a4 4 0 0 1-4 4H6a4 4 0 0 1-4-4V6a4 4 0 0 1 4-4z" fill="#fff" stroke="#c9ccd1" stroke-width="2.5"/><path d="M42 2v16a4 4 0 0 0 4 4h16" fill="#eef1f4" stroke="#c9ccd1" stroke-width="2.5"/><rect x="12" y="36" width="38" height="4" rx="2" fill="#1273c4"/><rect x="12" y="48" width="30" height="4" rx="2" fill="#d5d8dc"/><rect x="12" y="60" width="36" height="4" rx="2" fill="#d5d8dc"/></g>
<circle cx="1045.28" cy="513.0" r="24" fill="none" stroke="#101113" stroke-width="6"/><line x1="1062.56" y1="530.28" x2="1077.44" y2="545.16" stroke="#101113" stroke-width="6" stroke-linecap="round"/>
<text x="800" y="660" font-size="26" font-weight="800" fill="#5b6570" text-anchor="middle">하나씩 열어 확인</text>
<circle cx="700" cy="386" r="30" fill="#fff" stroke="#5b6570" stroke-width="4"/>
<line x1="700" y1="386" x2="700" y2="370" stroke="#2b2f35" stroke-width="4" stroke-linecap="round"/>
<line x1="700" y1="386" x2="712" y2="386" stroke="#2b2f35" stroke-width="4" stroke-linecap="round"/>
<text x="700" y="450" font-size="22" font-weight="800" fill="#5b6570" text-anchor="middle">하루 종일</text>
<circle cx="1118.0" cy="452.0" r="28" fill="#1273c4" stroke="#fff" stroke-width="4"/><text x="1118.0" y="462.6" font-size="29" font-weight="800" fill="#fff" text-anchor="middle">2</text>
<path d="M470 500C560 500 620 480 680 470" fill="none" stroke="#cfe3f5" stroke-width="24.0" stroke-linecap="round" stroke-linejoin="round"/><path d="M470 500C560 500 620 480 680 470" fill="none" stroke="#1273c4" stroke-width="12.0" stroke-linecap="round" stroke-linejoin="round"/><path d="M690.7 468.2L664.2 492.1L657.9 454.2Z" fill="#1273c4" stroke="#1273c4" stroke-width="7" stroke-linejoin="round"/>
<path d="M1094 524C1150 524 1190 540 1230 540" fill="none" stroke="#cfe3f5" stroke-width="24.0" stroke-linecap="round" stroke-linejoin="round"/><path d="M1094 524C1150 524 1190 540 1230 540" fill="none" stroke="#1273c4" stroke-width="12.0" stroke-linecap="round" stroke-linejoin="round"/><path d="M1240.8 540.0L1210.8 559.2L1210.8 520.8Z" fill="#1273c4" stroke="#1273c4" stroke-width="7" stroke-linejoin="round"/>
<rect x="1260" y="380" width="400" height="260" rx="14" fill="#fff" stroke="#aeb3ba" stroke-width="3" filter="url(#sh)"/>
<line x1="1260" y1="432" x2="1660" y2="432" stroke="#d5d8dc" stroke-width="2"/>
<line x1="1260" y1="484" x2="1660" y2="484" stroke="#d5d8dc" stroke-width="2"/>
<line x1="1260" y1="536" x2="1660" y2="536" stroke="#d5d8dc" stroke-width="2"/>
<line x1="1260" y1="588" x2="1660" y2="588" stroke="#d5d8dc" stroke-width="2"/>
<line x1="1420.0" y1="380" x2="1420.0" y2="640" stroke="#d5d8dc" stroke-width="2"/>
<text x="1460.0" y="360" font-size="26" font-weight="800" fill="#101113" text-anchor="middle">엑셀</text>
<text x="1340.0" y="414.0" font-size="19" font-weight="800" fill="#101113" text-anchor="middle">품목</text>
<text x="1540.0" y="414.0" font-size="19" font-weight="800" fill="#101113" text-anchor="middle">금액</text>
<text x="1340.0" y="466.0" font-size="19" font-weight="700" fill="#2b2f35" text-anchor="middle">노트북</text>
<text x="1540.0" y="466.0" font-size="19" font-weight="700" fill="#2b2f35" text-anchor="middle">1,250,000</text>
<text x="1340.0" y="518.0" font-size="19" font-weight="700" fill="#2b2f35" text-anchor="middle">모니터</text>
<text x="1540.0" y="518.0" font-size="19" font-weight="700" fill="#2b2f35" text-anchor="middle">320,000</text>
<g transform="translate(1580.0 536.0) rotate(-25)"><rect x="-20.0" y="-5.2" width="31.200000000000003" height="10.4" rx="5.2" fill="#1273c4"/><path d="M11.200000000000001 -5.2L20.0 0L11.200000000000001 5.2Z" fill="#1273c4"/></g>
</svg>
