<svg xmlns="http://www.w3.org/2000/svg" viewBox="0 0 1792 840" width="1792" height="840" font-family="Pretendard, 'Pretendard Variable', 'Malgun Gothic', sans-serif">
<!-- 7/13 복사기와 사용설명서 (tools/illus/s7_photocopier.py) -->
<defs>
  <filter id="sh" x="-15%" y="-15%" width="130%" height="140%"><feDropShadow dx="0" dy="8" stdDeviation="12" flood-color="#101113" flood-opacity="0.12"/></filter>
  <filter id="shs" x="-15%" y="-15%" width="130%" height="140%"><feDropShadow dx="0" dy="3" stdDeviation="4" flood-color="#101113" flood-opacity="0.14"/></filter>
  <marker id="ab" viewBox="0 0 10 10" refX="7" refY="5" markerWidth="4.2" markerHeight="4.2" orient="auto-start-reverse"><path d="M0 0L10 5L0 10z" fill="#1273c4"/></marker>
  <marker id="ak" viewBox="0 0 10 10" refX="7" refY="5" markerWidth="4.2" markerHeight="4.2" orient="auto-start-reverse"><path d="M0 0L10 5L0 10z" fill="#101113"/></marker>
  <marker id="ag" viewBox="0 0 10 10" refX="7" refY="5" markerWidth="4.2" markerHeight="4.2" orient="auto-start-reverse"><path d="M0 0L10 5L0 10z" fill="#12a150"/></marker>
</defs>
<circle cx="98" cy="260" r="28" fill="#1273c4" stroke="#fff" stroke-width="4"/><text x="98" y="270.6" font-size="29" font-weight="800" fill="#fff" text-anchor="middle">1</text>
<text x="136" y="270" font-size="30" font-weight="900" fill="#101113" text-anchor="start">남이 만든 기능</text>
<text x="136" y="304" font-size="24" font-weight="600" fill="#5b6570" text-anchor="start">내부 구조 몰라도 됨</text>
<circle cx="658" cy="260" r="28" fill="#1273c4" stroke="#fff" stroke-width="4"/><text x="658" y="270.6" font-size="29" font-weight="800" fill="#fff" text-anchor="middle">2</text>
<text x="696" y="270" font-size="30" font-weight="900" fill="#101113" text-anchor="start">사용설명서만 알면 됨</text>
<text x="696" y="304" font-size="24" font-weight="600" fill="#5b6570" text-anchor="start">순서대로 따라 하면 됨</text>
<circle cx="1218" cy="260" r="28" fill="#1273c4" stroke="#fff" stroke-width="4"/><text x="1218" y="270.6" font-size="29" font-weight="800" fill="#fff" text-anchor="middle">3</text>
<text x="1256" y="270" font-size="30" font-weight="900" fill="#101113" text-anchor="start">바로 씀</text>
<text x="1256" y="304" font-size="24" font-weight="600" fill="#5b6570" text-anchor="start">결과물 바로 완성</text>
<rect x="76" y="324" width="520" height="210" rx="16" fill="#fff" stroke="#e5e5e5" stroke-width="3"/>
<rect x="146" y="379" width="110" height="110" rx="14" fill="#d7dbe0" stroke="#aeb3ba" stroke-width="2.5"/>
<rect x="162" y="395" width="78" height="22" rx="6" fill="#2b2f35"/>
<circle cx="178" cy="463" r="15" fill="#1273c4"/>
<text x="326" y="425.0" font-size="32" font-weight="800" fill="#101113" text-anchor="start">복사기</text>
<rect x="636" y="324" width="520" height="210" rx="16" fill="#fff" stroke="#e5e5e5" stroke-width="3"/>
<circle cx="702" cy="367.0" r="20" fill="#cfe3f5"/>
<text x="702" y="375.0" font-size="24" font-weight="800" fill="#0d5c9e" text-anchor="middle">1</text>
<text x="740" y="375.0" font-size="28" font-weight="700" fill="#2b2f35" text-anchor="start">종이를 넣는다</text>
<circle cx="702" cy="429.0" r="20" fill="#cfe3f5"/>
<text x="702" y="437.0" font-size="24" font-weight="800" fill="#0d5c9e" text-anchor="middle">2</text>
<text x="740" y="437.0" font-size="28" font-weight="700" fill="#2b2f35" text-anchor="start">버튼을 누른다</text>
<circle cx="702" cy="491.0" r="20" fill="#cfe3f5"/>
<text x="702" y="499.0" font-size="24" font-weight="800" fill="#0d5c9e" text-anchor="middle">3</text>
<text x="740" y="499.0" font-size="28" font-weight="700" fill="#2b2f35" text-anchor="start">복사본을 꺼낸다</text>
<rect x="1196" y="324" width="520" height="210" rx="16" fill="#fff" stroke="#1273c4" stroke-width="3"/>
<circle cx="1272" cy="429.0" r="28" fill="#1273c4"/><path d="M1260.24 429.56l8.4 8.4 15.680000000000001-16.8" fill="none" stroke="#fff" stroke-width="5.6000000000000005" stroke-linecap="round" stroke-linejoin="round"/>
<text x="1328" y="425.0" font-size="32" font-weight="800" fill="#0d5c9e" text-anchor="start">복사본</text>
<line x1="596" y1="429.0" x2="636" y2="429.0" stroke="#9aa0a6" stroke-width="2.5" stroke-linecap="round"/><path d="M636.0 429.0L621.6 438.0L621.6 420.0Z" fill="#9aa0a6"/>
<line x1="1156" y1="429.0" x2="1196" y2="429.0" stroke="#9aa0a6" stroke-width="2.5" stroke-linecap="round"/><path d="M1196.0 429.0L1181.6 438.0L1181.6 420.0Z" fill="#9aa0a6"/>
<path transform="translate(830.0 601.35) scale(0.55)" d="M0 57.0h15.4v28.9h-15.4zM15 57.0h15.4v28.9h-15.4zM30 0.0h15.4v28.9h-15.4zM30 28.5h15.4v28.9h-15.4zM30 57.0h15.4v28.9h-15.4zM30 85.5h15.4v28.9h-15.4zM45 0.0h15.4v28.9h-15.4zM45 28.5h15.4v28.9h-15.4zM45 57.0h15.4v28.9h-15.4zM45 85.5h15.4v28.9h-15.4zM45 114.0h15.4v28.9h-15.4zM60 0.0h15.4v28.9h-15.4zM60 57.0h15.4v28.9h-15.4zM60 85.5h15.4v28.9h-15.4zM75 0.0h15.4v28.9h-15.4zM75 28.5h15.4v28.9h-15.4zM75 57.0h15.4v28.9h-15.4zM75 85.5h15.4v28.9h-15.4zM75 114.0h15.4v28.9h-15.4zM90 0.0h15.4v28.9h-15.4zM90 28.5h15.4v28.9h-15.4zM90 57.0h15.4v28.9h-15.4zM90 85.5h15.4v28.9h-15.4zM105 0.0h15.4v28.9h-15.4zM105 28.5h15.4v28.9h-15.4zM105 57.0h15.4v28.9h-15.4zM105 85.5h15.4v28.9h-15.4zM120 0.0h15.4v28.9h-15.4zM120 28.5h15.4v28.9h-15.4zM120 57.0h15.4v28.9h-15.4zM120 85.5h15.4v28.9h-15.4zM135 0.0h15.4v28.9h-15.4zM135 28.5h15.4v28.9h-15.4zM135 57.0h15.4v28.9h-15.4zM135 85.5h15.4v28.9h-15.4zM150 0.0h15.4v28.9h-15.4zM150 28.5h15.4v28.9h-15.4zM150 57.0h15.4v28.9h-15.4zM150 85.5h15.4v28.9h-15.4zM150 114.0h15.4v28.9h-15.4zM165 0.0h15.4v28.9h-15.4zM165 57.0h15.4v28.9h-15.4zM165 85.5h15.4v28.9h-15.4zM180 0.0h15.4v28.9h-15.4zM180 28.5h15.4v28.9h-15.4zM180 57.0h15.4v28.9h-15.4zM180 85.5h15.4v28.9h-15.4zM180 114.0h15.4v28.9h-15.4zM195 0.0h15.4v28.9h-15.4zM195 28.5h15.4v28.9h-15.4zM195 57.0h15.4v28.9h-15.4zM195 85.5h15.4v28.9h-15.4zM210 57.0h15.4v28.9h-15.4zM225 57.0h15.4v28.9h-15.4z" fill="#d97757" shape-rendering="crispEdges"/>
<rect x="766.0" y="680" width="260" height="26" rx="10" fill="#b9bec5" filter="url(#shs)"/>
<rect x="782.0" y="704" width="228" height="54" rx="10" fill="#d7dbe0" stroke="#aeb3ba" stroke-width="2"/>
</svg>
