<svg xmlns="http://www.w3.org/2000/svg" viewBox="0 0 1000 760">

  <defs>
    <filter id="winShadow" x="-20%" y="-20%" width="140%" height="140%">
      <feDropShadow dx="0" dy="8" stdDeviation="18" flood-color="#000000" flood-opacity="0.16"/>
    </filter>
  </defs>

<rect x="16" y="16" width="968" height="728" rx="10" fill="#ffffff" stroke="#e2e2e4" stroke-width="1" filter="url(#winShadow)"/>
<path d="M 16 26 A 10 10 0 0 1 26 16 L 974 16 A 10 10 0 0 1 984 26 L 984 68 L 16 68 Z" fill="#ffffff"/>
<line x1="16" y1="68" x2="984" y2="68" stroke="#e2e2e4" stroke-width="1"/>
<text x="44" y="49.0" font-family="Pretendard, 'Malgun Gothic', sans-serif" font-size="20" font-weight="600" fill="#1a1a1a">계산기</text>
<line x1="861" y1="42.0" x2="875" y2="42.0" stroke="#6b6b70" stroke-width="1.6" stroke-linecap="round"/>
<rect x="906" y="36.0" width="12" height="12" fill="none" stroke="#6b6b70" stroke-width="1.6"/>
<line x1="949" y1="35.0" x2="963" y2="49.0" stroke="#6b6b70" stroke-width="1.6" stroke-linecap="round"/>
<line x1="949" y1="49.0" x2="963" y2="35.0" stroke="#6b6b70" stroke-width="1.6" stroke-linecap="round"/>
<rect x="48" y="92" width="904" height="140" rx="10" fill="#ffffff" stroke="#e2e2e4" stroke-width="1"/>
<text x="924" y="192" text-anchor="end" font-family="Pretendard, 'Malgun Gothic', sans-serif" font-size="72" font-weight="300" fill="#1a1a1a">128</text>
<rect x="48.0" y="256.0" width="214.0" height="78.4" rx="12" fill="#eceef1"/>
<text x="155.0" y="306.2" text-anchor="middle" font-family="Pretendard, 'Malgun Gothic', sans-serif" font-size="30" font-weight="500" fill="#1a1a1a">C</text>
<rect x="278.0" y="256.0" width="214.0" height="78.4" rx="12" fill="#f5f5f6"/>
<text x="385.0" y="306.2" text-anchor="middle" font-family="Pretendard, 'Malgun Gothic', sans-serif" font-size="30" font-weight="500" fill="#1a1a1a">(</text>
<rect x="508.0" y="256.0" width="214.0" height="78.4" rx="12" fill="#f5f5f6"/>
<text x="615.0" y="306.2" text-anchor="middle" font-family="Pretendard, 'Malgun Gothic', sans-serif" font-size="30" font-weight="500" fill="#1a1a1a">)</text>
<rect x="738.0" y="256.0" width="214.0" height="78.4" rx="12" fill="#eceef1"/>
<text x="845.0" y="306.2" text-anchor="middle" font-family="Pretendard, 'Malgun Gothic', sans-serif" font-size="30" font-weight="500" fill="#1a1a1a">/</text>
<rect x="48.0" y="350.4" width="214.0" height="78.4" rx="12" fill="#f5f5f6"/>
<text x="155.0" y="400.59999999999997" text-anchor="middle" font-family="Pretendard, 'Malgun Gothic', sans-serif" font-size="30" font-weight="500" fill="#1a1a1a">7</text>
<rect x="278.0" y="350.4" width="214.0" height="78.4" rx="12" fill="#f5f5f6"/>
<text x="385.0" y="400.59999999999997" text-anchor="middle" font-family="Pretendard, 'Malgun Gothic', sans-serif" font-size="30" font-weight="500" fill="#1a1a1a">8</text>
<rect x="508.0" y="350.4" width="214.0" height="78.4" rx="12" fill="#f5f5f6"/>
<text x="615.0" y="400.59999999999997" text-anchor="middle" font-family="Pretendard, 'Malgun Gothic', sans-serif" font-size="30" font-weight="500" fill="#1a1a1a">9</text>
<rect x="738.0" y="350.4" width="214.0" height="78.4" rx="12" fill="#eceef1"/>
<text x="845.0" y="400.59999999999997" text-anchor="middle" font-family="Pretendard, 'Malgun Gothic', sans-serif" font-size="30" font-weight="500" fill="#1a1a1a">*</text>
<rect x="48.0" y="444.8" width="214.0" height="78.4" rx="12" fill="#f5f5f6"/>
<text x="155.0" y="495.0" text-anchor="middle" font-family="Pretendard, 'Malgun Gothic', sans-serif" font-size="30" font-weight="500" fill="#1a1a1a">4</text>
<rect x="278.0" y="444.8" width="214.0" height="78.4" rx="12" fill="#f5f5f6"/>
<text x="385.0" y="495.0" text-anchor="middle" font-family="Pretendard, 'Malgun Gothic', sans-serif" font-size="30" font-weight="500" fill="#1a1a1a">5</text>
<rect x="508.0" y="444.8" width="214.0" height="78.4" rx="12" fill="#f5f5f6"/>
<text x="615.0" y="495.0" text-anchor="middle" font-family="Pretendard, 'Malgun Gothic', sans-serif" font-size="30" font-weight="500" fill="#1a1a1a">6</text>
<rect x="738.0" y="444.8" width="214.0" height="78.4" rx="12" fill="#eceef1"/>
<text x="845.0" y="495.0" text-anchor="middle" font-family="Pretendard, 'Malgun Gothic', sans-serif" font-size="30" font-weight="500" fill="#1a1a1a">-</text>
<rect x="48.0" y="539.2" width="214.0" height="78.4" rx="12" fill="#f5f5f6"/>
<text x="155.0" y="589.4000000000001" text-anchor="middle" font-family="Pretendard, 'Malgun Gothic', sans-serif" font-size="30" font-weight="500" fill="#1a1a1a">1</text>
<rect x="278.0" y="539.2" width="214.0" height="78.4" rx="12" fill="#f5f5f6"/>
<text x="385.0" y="589.4000000000001" text-anchor="middle" font-family="Pretendard, 'Malgun Gothic', sans-serif" font-size="30" font-weight="500" fill="#1a1a1a">2</text>
<rect x="508.0" y="539.2" width="214.0" height="78.4" rx="12" fill="#f5f5f6"/>
<text x="615.0" y="589.4000000000001" text-anchor="middle" font-family="Pretendard, 'Malgun Gothic', sans-serif" font-size="30" font-weight="500" fill="#1a1a1a">3</text>
<rect x="738.0" y="539.2" width="214.0" height="78.4" rx="12" fill="#eceef1"/>
<text x="845.0" y="589.4000000000001" text-anchor="middle" font-family="Pretendard, 'Malgun Gothic', sans-serif" font-size="30" font-weight="500" fill="#1a1a1a">+</text>
<rect x="48.0" y="633.6" width="214.0" height="78.4" rx="12" fill="#f5f5f6"/>
<text x="155.0" y="683.8000000000001" text-anchor="middle" font-family="Pretendard, 'Malgun Gothic', sans-serif" font-size="30" font-weight="500" fill="#1a1a1a">0</text>
<rect x="278.0" y="633.6" width="214.0" height="78.4" rx="12" fill="#f5f5f6"/>
<text x="385.0" y="683.8000000000001" text-anchor="middle" font-family="Pretendard, 'Malgun Gothic', sans-serif" font-size="30" font-weight="500" fill="#1a1a1a">.</text>
<rect x="508.0" y="633.6" width="444.0" height="78.4" rx="12" fill="#1273c4"/>
<text x="730.0" y="683.8000000000001" text-anchor="middle" font-family="Pretendard, 'Malgun Gothic', sans-serif" font-size="30" font-weight="500" fill="#ffffff">=</text>
</svg>