<svg xmlns="http://www.w3.org/2000/svg" width="1280" height="720" viewBox="0 0 1280 720">
  <rect width="1280" height="720" fill="#ffffff"/>
  <rect x="60" y="44" width="78" height="24" rx="12" fill="#171717"/>
  <text x="99" y="60" text-anchor="middle" font-family="-apple-system,BlinkMacSystemFont,'Segoe UI',Arial,sans-serif" font-size="11" font-weight="600" fill="#fafafa" letter-spacing="0.8">BASIC 01</text>
  <rect x="150" y="44" width="54" height="24" rx="12" fill="#f0f4ff" stroke="#c7d7ff" stroke-width="1"/>
  <text x="177" y="60" text-anchor="middle" font-family="-apple-system,BlinkMacSystemFont,'Segoe UI',Arial,sans-serif" font-size="11" font-weight="600" fill="#3b5bdb">STEP 4</text>
  <text x="60" y="100" font-family="-apple-system,BlinkMacSystemFont,'Segoe UI',Arial,sans-serif" font-size="22" font-weight="800" fill="#0a0a0a" letter-spacing="-0.02em">Google 계정 선택</text>
  <rect x="140" y="118" width="1000" height="520" rx="10" fill="#ffffff" stroke="#d1d5db" stroke-width="1.5"/>
<path d="M150 119h980a9 9 0 0 1 9 9v23H141v-23a9 9 0 0 1 9-9z" fill="#f3f4f6"/>
<circle cx="162" cy="135" r="5" fill="#ef4444"/><circle cx="180" cy="135" r="5" fill="#f59e0b"/><circle cx="198" cy="135" r="5" fill="#22c55e"/>
<rect x="245" y="124" width="650" height="22" rx="11" fill="#ffffff" stroke="#e5e7eb"/>
<text x="265" y="139" font-family="-apple-system,BlinkMacSystemFont,'Segoe UI',Arial,sans-serif" font-size="11" font-weight="500" fill="#4b5563" >Google 로그인</text>
<rect x="141" y="152" width="998" height="485" fill="#f8fafc"/>
<rect x="282" y="190" width="716" height="386" rx="16" fill="#ffffff" stroke="#e5e7eb"/><circle cx="344" cy="246" r="18" fill="#ffffff" stroke="#e5e7eb"/><text x="344" y="252" font-family="-apple-system,BlinkMacSystemFont,'Segoe UI',Arial,sans-serif" font-size="18" font-weight="700" fill="#4285f4" text-anchor="middle">G</text><text x="382" y="252" font-family="-apple-system,BlinkMacSystemFont,'Segoe UI',Arial,sans-serif" font-size="18" font-weight="500" fill="#202124" >Google 계정으로 로그인</text><text x="640" y="316" font-family="-apple-system,BlinkMacSystemFont,'Segoe UI',Arial,sans-serif" font-size="27" font-weight="500" fill="#202124" text-anchor="middle">계정 선택</text><text x="640" y="351" font-family="-apple-system,BlinkMacSystemFont,'Segoe UI',Arial,sans-serif" font-size="15" font-weight="400" fill="#5f6368" text-anchor="middle">Antigravity CLI에 연결할 계정을 선택하세요.</text><rect x="372" y="386" width="536" height="66" rx="8" fill="#ffffff" stroke="#dadce0"/><circle cx="411" cy="419" r="18" fill="#e8f0fe"/><text x="411" y="425" font-family="-apple-system,BlinkMacSystemFont,'Segoe UI',Arial,sans-serif" font-size="16" font-weight="600" fill="#1967d2" text-anchor="middle">S</text><text x="449" y="414" font-family="-apple-system,BlinkMacSystemFont,'Segoe UI',Arial,sans-serif" font-size="15" font-weight="500" fill="#202124" >학생용 Google 계정</text><text x="449" y="435" font-family="-apple-system,BlinkMacSystemFont,'Segoe UI',Arial,sans-serif" font-size="13" font-weight="400" fill="#5f6368" >선택한 계정으로 계속</text><rect x="372" y="464" width="536" height="58" rx="8" fill="#ffffff" stroke="#dadce0"/><text x="412" y="499" font-family="-apple-system,BlinkMacSystemFont,'Segoe UI',Arial,sans-serif" font-size="15" font-weight="500" fill="#1a73e8" >다른 계정 사용</text>
  <text x="640" y="668" text-anchor="middle" font-family="-apple-system,BlinkMacSystemFont,'Segoe UI',Arial,sans-serif" font-size="15" font-weight="500" fill="#374151">실습에 사용할 본인 계정을 선택합니다. 예시 화면에는 실제 주소를 넣지 않았습니다.</text>
</svg>

