<svg xmlns="http://www.w3.org/2000/svg" width="1280" height="720" viewBox="0 0 1280 720">
  <rect width="1280" height="720" fill="#ffffff"/>
  <rect x="60" y="44" width="78" height="24" rx="12" fill="#171717"/>
  <text x="99" y="60" text-anchor="middle" font-family="-apple-system,BlinkMacSystemFont,'Segoe UI',Arial,sans-serif" font-size="11" font-weight="600" fill="#fafafa" letter-spacing="0.8">BASIC 01</text>
  <rect x="150" y="44" width="54" height="24" rx="12" fill="#f0f4ff" stroke="#c7d7ff" stroke-width="1"/>
  <text x="177" y="60" text-anchor="middle" font-family="-apple-system,BlinkMacSystemFont,'Segoe UI',Arial,sans-serif" font-size="11" font-weight="600" fill="#3b5bdb">STEP 4</text>
  <text x="60" y="100" font-family="-apple-system,BlinkMacSystemFont,'Segoe UI',Arial,sans-serif" font-size="22" font-weight="800" fill="#0a0a0a" letter-spacing="-0.02em">브라우저에서 계정 권한 확인</text>
  <rect x="140" y="118" width="1000" height="520" rx="10" fill="#ffffff" stroke="#d1d5db" stroke-width="1.5"/>
<path d="M150 119h980a9 9 0 0 1 9 9v23H141v-23a9 9 0 0 1 9-9z" fill="#f3f4f6"/>
<circle cx="162" cy="135" r="5" fill="#ef4444"/><circle cx="180" cy="135" r="5" fill="#f59e0b"/><circle cx="198" cy="135" r="5" fill="#22c55e"/>
<rect x="245" y="124" width="650" height="22" rx="11" fill="#ffffff" stroke="#e5e7eb"/>
<text x="265" y="139" font-family="-apple-system,BlinkMacSystemFont,'Segoe UI',Arial,sans-serif" font-size="11" font-weight="500" fill="#4b5563" >Claude Code 계정 권한 확인</text>
<rect x="141" y="152" width="998" height="485" fill="#f8fafc"/>
<rect x="256" y="177" width="768" height="412" rx="14" fill="#ffffff" stroke="#e5e7eb"/><circle cx="640" cy="218" r="21" fill="#f3f4f6" stroke="#d1d5db"/><text x="640" y="225" font-family="-apple-system,BlinkMacSystemFont,'Segoe UI',Arial,sans-serif" font-size="22" font-weight="700" fill="#d97757" text-anchor="middle">C</text><text x="640" y="266" font-family="-apple-system,BlinkMacSystemFont,'Segoe UI',Arial,sans-serif" font-size="20" font-weight="500" fill="#111827" text-anchor="middle">Claude Code 계정 연결 요청</text><text x="640" y="293" font-family="-apple-system,BlinkMacSystemFont,'Segoe UI',Arial,sans-serif" font-size="14" font-weight="400" fill="#4b5563" text-anchor="middle">요청된 권한을 확인한 후 승인하세요.</text><rect x="310" y="314" width="660" height="190" rx="8" fill="#fafafa" stroke="#e5e7eb"/><text x="334" y="347" font-family="-apple-system,BlinkMacSystemFont,'Segoe UI',Arial,sans-serif" font-size="15" font-weight="600" fill="#d97757" >✓</text><text x="360" y="347" font-family="-apple-system,BlinkMacSystemFont,'Segoe UI',Arial,sans-serif" font-size="14" font-weight="400" fill="#374151" >계정 프로필과 기본 설정 확인</text><text x="334" y="378" font-family="-apple-system,BlinkMacSystemFont,'Segoe UI',Arial,sans-serif" font-size="15" font-weight="600" fill="#d97757" >✓</text><text x="360" y="378" font-family="-apple-system,BlinkMacSystemFont,'Segoe UI',Arial,sans-serif" font-size="14" font-weight="400" fill="#374151" >Claude 구독 및 서비스 권한 확인</text><text x="334" y="409" font-family="-apple-system,BlinkMacSystemFont,'Segoe UI',Arial,sans-serif" font-size="15" font-weight="600" fill="#d97757" >✓</text><text x="360" y="409" font-family="-apple-system,BlinkMacSystemFont,'Segoe UI',Arial,sans-serif" font-size="14" font-weight="400" fill="#374151" >Claude Code 세션 연결</text><text x="334" y="440" font-family="-apple-system,BlinkMacSystemFont,'Segoe UI',Arial,sans-serif" font-size="15" font-weight="600" fill="#d97757" >✓</text><text x="360" y="440" font-family="-apple-system,BlinkMacSystemFont,'Segoe UI',Arial,sans-serif" font-size="14" font-weight="400" fill="#374151" >사용자 요청에 따라 파일 작업 지원</text><text x="334" y="471" font-family="-apple-system,BlinkMacSystemFont,'Segoe UI',Arial,sans-serif" font-size="15" font-weight="600" fill="#d97757" >✓</text><text x="360" y="471" font-family="-apple-system,BlinkMacSystemFont,'Segoe UI',Arial,sans-serif" font-size="14" font-weight="400" fill="#374151" >계정의 개인정보 보호 설정 적용</text><text x="338" y="545" font-family="-apple-system,BlinkMacSystemFont,'Segoe UI',Arial,sans-serif" font-size="14" font-weight="500" fill="#6b7280" >거부</text><rect x="806" y="522" width="134" height="40" rx="20" fill="#111827"/><text x="873" y="547" font-family="-apple-system,BlinkMacSystemFont,'Segoe UI',Arial,sans-serif" font-size="14" font-weight="600" fill="#ffffff" text-anchor="middle">허용</text>
  <text x="640" y="668" text-anchor="middle" font-family="-apple-system,BlinkMacSystemFont,'Segoe UI',Arial,sans-serif" font-size="15" font-weight="500" fill="#374151">요청 권한을 읽고 본인이 승인할 때만 허용을 선택합니다.</text>
</svg>

